<?xml version="1.0" encoding="utf-8"?>
<!-- Generator: Adobe Illustrator 16.0.0, SVG Export Plug-In . SVG Version: 6.00 Build 0)  -->
<!DOCTYPE svg PUBLIC "-//W3C//DTD SVG 1.1//EN" "http://www.w3.org/Graphics/SVG/1.1/DTD/svg11.dtd">
<svg version="1.1" id="Camada_1" xmlns="http://www.w3.org/2000/svg" xmlns:xlink="http://www.w3.org/1999/xlink" x="0px" y="0px"
	 width="500px" height="500px" viewBox="0 0 500 500" enable-background="new 0 0 500 500" xml:space="preserve">
<g id="Forma_1">
	<g>
		<path fill-rule="evenodd" clip-rule="evenodd" fill="#666666" d="M111.857,148.748l37.86,33.318
			c1.405,1.242,3.348,1.697,5.214,1.316c1.846-0.37,3.452-1.653,4.289-3.346c0.314-0.643,3.769-6.626,15.145-5.572
			c14.659,1.327,24.212,7.929,24.307,7.997c1.056,0.747,2.278,1.112,3.502,1.112c1.474,0,2.938-0.536,4.097-1.585l36.346-33.318
			c1.99-1.831,2.532-4.761,1.325-7.179l-15.236-30.464c15.848-26.83,47.674-28.975,57.305-28.975c1.266,0,2.011,0.041,2.531,0.06
			l7.572-0.06c2.484-0.018,4.72-1.563,5.607-3.891c0.888-2.324,0.272-4.959-1.567-6.638c-15.919-14.571-35.724-21.953-58.866-21.953
			c-46.165,0-93.958,30.555-103.656,51.156c-11.467,24.377-25.922,39.049-26.067,39.193c-1.174,1.184-1.816,2.807-1.763,4.474
			C109.858,146.072,110.597,147.641,111.857,148.748z M148.584,105.89c7.303-15.531,50.446-44.202,92.692-44.202
			c13.57,0,25.78,2.901,36.469,8.648c-16.375,1.513-46.029,8.445-61.271,37.752c-0.896,1.722-0.914,3.769-0.042,5.501l14.618,29.231
			l-29.664,27.191c-4.999-2.659-14.085-6.543-25.928-7.62c-1.302-0.115-2.544-0.17-3.718-0.17c-8.77,0-14.896,3.072-18.809,6.548
			l-28.483-25.068C130.03,137.156,140.012,124.105,148.584,105.89z M78.612,186.641l40.889,34.833
			c1.097,0.931,2.497,1.441,3.924,1.441c0.178,0,0.358-0.008,0.527-0.019c1.624-0.14,3.115-0.926,4.144-2.18l21.201-25.746
			c2.08-2.521,1.786-6.235-0.66-8.391l-39.375-34.834c-1.206-1.064-2.768-1.597-4.386-1.509c-1.606,0.104-3.1,0.838-4.168,2.042
			l-22.716,25.745c-1.076,1.214-1.618,2.813-1.497,4.437C76.612,184.078,77.375,185.58,78.612,186.641z M105.779,164.833
			l30.454,26.938l-13.571,16.478l-31.506-26.842L105.779,164.833z M446.073,332.021c-0.319-0.745-0.78-1.413-1.372-1.975
			l-103.523-99.317l-82.913-80.908c-2.26-2.196-5.833-2.294-8.208-0.229l-41.643,36.346c-1.242,1.085-1.988,2.616-2.073,4.258
			c-0.077,1.644,0.503,3.25,1.629,4.448l179.113,191.471c0.408,0.438,0.876,0.804,1.385,1.102c2.531,1.466,5.524,2.205,8.885,2.205
			c9.761,0,22.385-6.555,32.938-17.102C444.156,358.459,450.486,342.263,446.073,332.021z M421.725,363.747
			c-10.873,10.869-22.302,14.702-26.578,13.247L221.104,190.949l32.701-28.55l78.955,77.033l102.465,98.298
			C436.146,342.41,432.272,353.194,421.725,363.747z M414.945,396.072H94.652v-77.855l14.818-10.308
			c2.174-1.515,3.112-4.261,2.319-6.786c-0.792-2.526-3.133-4.247-5.78-4.247H71.179c-2.641,0-4.984,1.721-5.78,4.247
			c-0.792,2.525,0.154,5.271,2.322,6.786l14.815,10.306v77.857H54.52c-3.348,0-6.058,2.709-6.058,6.058v34.075
			c0,3.354,2.709,6.06,6.058,6.06h360.425c3.349,0,6.058-2.705,6.058-6.06V402.13C421.003,398.781,418.294,396.072,414.945,396.072z
			 M408.888,430.147H60.578v-21.961h348.31V430.147z"/>
	</g>
</g>
</svg>
