<svg width="600" height="600" xmlns="http://www.w3.org/2000/svg">

 <g>
  <title>background</title>
  <rect fill="none" id="canvas_background" height="602" width="602" y="-1" x="-1"/>
 </g>
 <g>
  <title>Layer 1</title>
  <ellipse stroke="#000" ry="270" rx="270" id="svg_3" cy="305" cx="300" stroke-width="1.5" fill="#fff"/>
  <g stroke="null" id="Forma_1">
   <g stroke="null" id="svg_1">
    <path stroke="null" id="svg_2" d="m171.857,178.748l37.86,33.318c1.405,1.242 3.348,1.697 5.214,1.316c1.846,-0.37 3.452,-1.653 4.289,-3.346c0.314,-0.643 3.769,-6.626 15.145,-5.572c14.659,1.327 24.212,7.929 24.307,7.997c1.056,0.747 2.278,1.112 3.502,1.112c1.474,0 2.938,-0.536 4.097,-1.585l36.346,-33.318c1.99,-1.831 2.532,-4.761 1.325,-7.179l-15.236,-30.464c15.848,-26.83 47.674,-28.975 57.305,-28.975c1.266,0 2.011,0.041 2.531,0.06l7.572,-0.06c2.484,-0.018 4.72,-1.563 5.607,-3.891c0.888,-2.324 0.272,-4.959 -1.567,-6.638c-15.919,-14.571 -35.724,-21.953 -58.866,-21.953c-46.165,0 -93.958,30.555 -103.656,51.156c-11.467,24.377 -25.922,39.049 -26.067,39.193c-1.174,1.184 -1.816,2.807 -1.763,4.474c0.056,1.679 0.795,3.248 2.055,4.355zm36.727,-42.858c7.303,-15.531 50.446,-44.202 92.692,-44.202c13.57,0 25.78,2.901 36.469,8.648c-16.375,1.513 -46.029,8.445 -61.271,37.752c-0.896,1.722 -0.914,3.769 -0.042,5.501l14.618,29.231l-29.664,27.191c-4.999,-2.659 -14.085,-6.543 -25.928,-7.62c-1.302,-0.115 -2.544,-0.17 -3.718,-0.17c-8.77,0 -14.896,3.072 -18.809,6.548l-28.483,-25.068c5.582,-6.545 15.564,-19.596 24.136,-37.811zm-69.972,80.751l40.889,34.833c1.097,0.931 2.497,1.441 3.924,1.441c0.178,0 0.358,-0.008 0.527,-0.019c1.624,-0.14 3.115,-0.926 4.144,-2.18l21.201,-25.746c2.08,-2.521 1.786,-6.235 -0.66,-8.391l-39.375,-34.834c-1.206,-1.064 -2.768,-1.597 -4.386,-1.509c-1.606,0.104 -3.1,0.838 -4.168,2.042l-22.716,25.745c-1.076,1.214 -1.618,2.813 -1.497,4.437c0.117,1.618 0.88,3.12 2.117,4.181zm27.167,-21.808l30.454,26.938l-13.571,16.478l-31.506,-26.842l14.623,-16.574zm340.294,167.188c-0.319,-0.745 -0.78,-1.413 -1.372,-1.975l-103.523,-99.317l-82.913,-80.908c-2.26,-2.196 -5.833,-2.294 -8.208,-0.229l-41.643,36.346c-1.242,1.085 -1.988,2.616 -2.073,4.258c-0.077,1.644 0.503,3.25 1.629,4.448l179.113,191.471c0.408,0.438 0.876,0.804 1.385,1.102c2.531,1.466 5.524,2.205 8.885,2.205c9.761,0 22.385,-6.555 32.938,-17.102c13.865,-13.861 20.195,-30.057 15.782,-40.299zm-24.348,31.726c-10.873,10.869 -22.302,14.702 -26.578,13.247l-174.043,-186.045l32.701,-28.55l78.955,77.033l102.465,98.298c0.921,4.68 -2.953,15.464 -13.5,26.017zm-6.78,32.325l-320.293,0l0,-77.855l14.818,-10.308c2.174,-1.515 3.112,-4.261 2.319,-6.786c-0.792,-2.526 -3.133,-4.247 -5.78,-4.247l-34.83,0c-2.641,0 -4.984,1.721 -5.78,4.247c-0.792,2.525 0.154,5.271 2.322,6.786l14.815,10.306l0,77.857l-28.016,0c-3.348,0 -6.058,2.709 -6.058,6.058l0,34.075c0,3.354 2.709,6.06 6.058,6.06l360.425,0c3.349,0 6.058,-2.705 6.058,-6.06l0,-34.075c0,-3.349 -2.709,-6.058 -6.058,-6.058zm-6.057,34.075l-348.31,0l0,-21.961l348.31,0l0,21.961z" fill="#666666" clip-rule="evenodd" fill-rule="evenodd"/>
   </g>
  </g>
 </g>
</svg>